<svg xmlns="http://www.w3.org/2000/svg" viewBox="0 0 567.25 419.98"><defs><style>.cls-1,.cls-2{fill:#fff;}.cls-2{fill-rule:evenodd;}</style></defs><title>ibon logo white</title><g id="Layer_2" data-name="Layer 2"><g id="ibon"><path class="cls-1" d="M.37,229H47.31V416.77H.37Z"/><path class="cls-1" d="M81,229h87.68q21.92,0,33.65,13.45t11.73,33.31q0,16.65-8.37,28.57-5.58,7.95-16.34,12.55,16.33,4.88,24,16.72t7.7,29.79a60.87,60.87,0,0,1-5.48,26.26,46.28,46.28,0,0,1-15,18.45q-5.9,4.23-17.78,6.15-15.81,2.57-21,2.56H81Zm47.25,73.66h20.37q11,0,15.25-4.67t4.29-13.52q0-8.19-4.29-12.81T148.94,267H128.26Zm0,73.8h23.88q12.11,0,17.06-5.32t5-14.28q0-8.34-4.91-13.39T152,338.37H128.26Z"/><path class="cls-1" d="M239.71,323q0-46,20.68-71.61T318,225.76q37.84,0,58.31,25.17t20.47,70.53q0,32.93-8.94,54T362,408.25Q345.06,420,319.84,420q-25.65,0-42.44-10.13t-27.24-32Q239.71,355.92,239.71,323Zm46.84.26q0,28.44,8.53,40.87t23.21,12.43q15.09,0,23.36-12.17t8.28-43.69q0-26.52-8.64-38.75T317.88,269.7q-14.17,0-22.75,12.43T286.55,323.25Z"/><path class="cls-1" d="M422.3,229H466L523.1,332.87V229h44.15V416.77H523.1L466.34,313.65V416.77h-44Z"/><path class="cls-2" d="M452.22,54.14c-22.46,21.89-42,1.73-56.42-9.21C355.5-.58,313.47,21.31,276.63,53.57s-115.72,79.49-133.57,89.85C125.79,157.25,0,198.43,0,198.43s43.9-6.19,96.86-18.86C225.24,150.19,275.91,98.35,309.3,73S368,41.9,408.89,66.1s40.88,7.48,58.73-13.25,50.66-21.31,59.29-20.74c-9.78,6.91-17.27,31.11-17.27,51.27,0,68.72-55.16,108.2-64.24,114.23,86.49-44.27,87.43-103.92,89.72-136C537.42,29.38,542.6,26.5,561,0,498.27,1.73,474.67,32.26,452.22,54.14Z"/></g></g></svg>